<svg width="45" height="34" viewBox="0 0 45 34" fill="none" xmlns="http://www.w3.org/2000/svg">
<g clip-path="url(#clip0_171_824)">
<path fill-rule="evenodd" clip-rule="evenodd" d="M0 0H45V33.75H0V0Z" fill="#229E45"/>
<path fill-rule="evenodd" clip-rule="evenodd" d="M22.5982 30.6562L43.7975 16.8961L22.4717 3.09375L1.20215 16.9242L22.5982 30.6562Z" fill="#F8E509"/>
<path fill-rule="evenodd" clip-rule="evenodd" d="M31.8375 16.875C31.8375 21.818 27.8227 25.8258 22.8656 25.8258C21.0942 25.823 19.3634 25.2951 17.892 24.3088C16.4206 23.3225 15.2747 21.9221 14.5991 20.2846C13.9234 18.6471 13.7484 16.8461 14.0962 15.1092C14.444 13.3723 15.299 11.7775 16.553 10.5264C17.8071 9.27531 19.4039 8.42411 21.1416 8.0804C22.8793 7.7367 24.6799 7.91591 26.3158 8.5954C27.9517 9.27488 29.3494 10.4241 30.3322 11.8979C31.3151 13.3716 31.8389 15.1036 31.8375 16.875Z" fill="#2B49A3"/>
<path fill-rule="evenodd" clip-rule="evenodd" d="M19.9197 22.2399L19.6385 22.0781L19.3572 22.2188L19.4205 21.9024L19.1955 21.6633L19.5119 21.6281L19.6666 21.3469L19.8002 21.6422L20.1096 21.6985L19.8775 21.9094M25.9244 23.7586L25.6502 23.5969L25.3689 23.7375L25.4252 23.4211L25.2072 23.1891L25.5236 23.1539L25.6713 22.8656L25.8119 23.1609L26.1213 23.2172L25.8822 23.4352M23.3369 21.3258L23.0979 21.1852L22.8518 21.3117L22.908 21.0375L22.7111 20.8336L22.9924 20.8055L23.1189 20.5524L23.2314 20.8125L23.5057 20.8617L23.2947 21.0516M29.4119 20.4539L29.1729 20.3133L28.9268 20.4399L28.983 20.1656L28.7932 19.9688L29.0674 19.9406L29.1939 19.6945L29.3064 19.9477L29.5736 19.9969L29.3697 20.1797M23.2314 18.6328L22.9502 18.4781L22.6689 18.6188L22.7252 18.2953L22.5072 18.0633L22.8236 18.0281L22.9713 17.7399L23.1119 18.0352L23.4213 18.0914L23.1822 18.3164M15.8275 15.8555L15.5463 15.7008L15.265 15.8414L15.3354 15.518L15.1033 15.2859L15.4268 15.2508L15.5674 14.9625L15.708 15.2578L16.0174 15.3141L15.7854 15.532M16.7205 19.5539L16.4393 19.3922L16.158 19.5328L16.2213 19.2164L15.9963 18.9844L16.3127 18.9422L16.4604 18.6609L16.601 18.9563L16.9104 19.0125L16.6783 19.2305M25.9596 14.4984L25.7064 14.3578L25.4533 14.4844L25.5096 14.2031L25.3127 13.9922L25.5939 13.957L25.7275 13.7039L25.8471 13.9711L26.1283 14.0203L25.9174 14.2102M25.4463 16.9031L25.2564 16.7906L25.0525 16.8891L25.0947 16.6641L24.94 16.5024L25.165 16.4742L25.2705 16.2774L25.3619 16.4883L25.5729 16.5235L25.4182 16.6781M15.4197 20.2219L15.2299 20.1164L15.04 20.2078L15.0822 19.9969L14.9346 19.8422L15.1455 19.8141L15.2439 19.6242L15.3354 19.8211L15.5463 19.8633L15.3846 20.0039M29.4611 21.0797L29.3064 21.0024L29.1518 21.0727L29.1869 20.9109L29.0674 20.7984L29.2361 20.7774L29.3205 20.6367L29.3908 20.7774L29.5666 20.8125L29.433 20.918" fill="#FFFFEF"/>
<path fill-rule="evenodd" clip-rule="evenodd" d="M15.4197 20.2219L15.2299 20.1164L15.04 20.2078L15.0822 19.9969L14.9346 19.8422L15.1455 19.814L15.2439 19.6242L15.3354 19.8211L15.5463 19.8633L15.3846 20.0039" fill="#FFFFEF"/>
<path fill-rule="evenodd" clip-rule="evenodd" d="M15.4197 20.2219L15.2299 20.1164L15.04 20.2078L15.0822 19.9969L14.9346 19.8422L15.1455 19.8141L15.2439 19.6242L15.3354 19.8211L15.5463 19.8633L15.3846 20.0039M18.3588 20.2149L18.176 20.1164L17.9861 20.2078L18.0283 19.9969L17.8807 19.8422L18.0916 19.8141L18.19 19.6242L18.2814 19.8211L18.4924 19.8563L18.3307 20.0039M17.9932 21.1992L17.8104 21.0938L17.6205 21.1922L17.6627 20.9813L17.515 20.8195L17.726 20.7914L17.8244 20.6016L17.9158 20.7984L18.1268 20.8406L17.965 20.9813M24.1104 19.4203L23.9275 19.3078L23.7307 19.4063L23.7729 19.1953L23.6322 19.0336L23.8432 19.0125L23.9416 18.8227L24.026 19.0195L24.2369 19.0547L24.0822 19.2024M22.3174 19.4133L22.1275 19.3078L21.9377 19.4063L21.9799 19.1953L21.8393 19.0336L22.0502 19.0125L22.1486 18.8156L22.233 19.0195L22.4439 19.0547L22.2893 19.2024M17.4518 18.7945L17.3322 18.7242L17.2127 18.7805L17.2408 18.6469L17.1494 18.5484L17.283 18.5344L17.3393 18.4149L17.3955 18.5414L17.5291 18.5625L17.4307 18.6539M29.2291 21.8461L29.0463 21.7406L28.8564 21.8391L28.8986 21.6281L28.751 21.4664L28.9619 21.4383L29.0604 21.2485L29.1518 21.4453L29.3627 21.4875L29.201 21.6281M27.7385 22.05L27.5838 21.9516L27.4221 22.0359L27.4572 21.8531L27.3377 21.7266L27.5135 21.7055L27.5979 21.5438L27.6682 21.7125L27.8439 21.7406L27.7104 21.8672M28.4416 22.0289L28.301 21.9445L28.1533 22.0149L28.1814 21.8531L28.0689 21.7336L28.2307 21.7125L28.308 21.5719L28.3783 21.7125L28.54 21.7477L28.4205 21.8602M30.4666 20.257L30.326 20.1867L30.1854 20.257L30.2205 20.0953L30.108 19.9758L30.2697 19.9547L30.34 19.8141L30.4104 19.9617L30.558 19.9899L30.4455 20.1024M27.7174 23.0414L27.5416 22.943L27.3518 23.0274L27.3939 22.8305L27.2533 22.6899L27.4643 22.6688L27.5557 22.493L27.64 22.6758L27.851 22.7109L27.6893 22.8445M27.7314 23.843L27.5627 23.7445L27.3939 23.8359L27.4361 23.6391L27.3025 23.4985L27.4924 23.4703L27.5768 23.2945L27.6541 23.4774L27.8439 23.5125L27.7033 23.6531M26.3674 22.0289L26.2338 21.9445L26.0932 22.0149L26.1213 21.8602L26.0158 21.7406L26.1705 21.7266L26.2408 21.5859L26.3111 21.7266L26.4658 21.7547L26.3533 21.8672M25.1018 22.0289L24.9611 21.9445L24.8205 22.0149L24.8557 21.8602L24.7432 21.7406L24.9049 21.7266L24.9752 21.5859L25.0455 21.7266L25.1932 21.7547L25.0807 21.8672M22.9432 20.1375L22.8025 20.0602L22.6619 20.1305L22.6971 19.9688L22.5846 19.8563L22.7393 19.8352L22.8096 19.6945L22.8799 19.8352L23.0346 19.8703L22.9221 19.9758M23.1822 23.9836L23.0697 23.9203L22.9432 23.9836L22.9713 23.843L22.8799 23.7445L23.0135 23.7305L23.0768 23.6109L23.133 23.7375L23.2666 23.7586L23.1682 23.85M19.9197 17.761L19.6385 17.5992L19.3572 17.7399L19.4205 17.4235L19.1955 17.1914L19.5119 17.1492L19.6666 16.868L19.8002 17.1633L20.1096 17.2195L19.8775 17.4375" fill="#FFFFEF"/>
<path fill-rule="evenodd" clip-rule="evenodd" d="M31.2469 20.0953C31.4211 19.6433 31.5575 19.1777 31.6547 18.7031C26.8875 14.5195 21.5789 12.375 14.8711 12.818C14.6278 13.2887 14.4278 13.7806 14.2734 14.2875C22.2188 13.5281 28.0547 17.0437 31.2469 20.0953Z" fill="white"/>
<path d="M29.1095 17.7469L29.2712 17.8383C29.247 17.886 29.2396 17.9405 29.2501 17.993C29.2666 18.0439 29.3018 18.0866 29.3485 18.1125C29.3978 18.1477 29.447 18.1687 29.4892 18.1617C29.5313 18.1617 29.5595 18.1406 29.5806 18.1125C29.5928 18.0938 29.5978 18.0713 29.5946 18.0492C29.5889 18.0232 29.5768 17.9991 29.5595 17.9789C29.5454 17.9578 29.5103 17.9086 29.454 17.8523C29.3962 17.7927 29.3529 17.7205 29.3274 17.6414C29.3099 17.5815 29.3144 17.5174 29.3403 17.4606C29.3661 17.4038 29.4114 17.3582 29.4681 17.332C29.5192 17.3107 29.5757 17.3058 29.6298 17.318C29.6959 17.3332 29.7581 17.3619 29.8126 17.4023C29.911 17.4727 29.9743 17.543 29.9954 17.6273C30.0051 17.6668 30.0064 17.7079 29.9991 17.7479C29.9919 17.7879 29.9762 17.8259 29.9532 17.8594L29.7845 17.7539C29.8056 17.7117 29.8126 17.6695 29.7985 17.6344C29.7915 17.5992 29.7634 17.5641 29.7142 17.5359C29.678 17.5069 29.6338 17.4897 29.5876 17.4867C29.5749 17.4863 29.5622 17.4893 29.5511 17.4955C29.5399 17.5017 29.5307 17.5108 29.5243 17.5219C29.5103 17.543 29.5103 17.5641 29.5173 17.5922C29.5243 17.6203 29.5595 17.6766 29.6298 17.7469C29.7001 17.8172 29.7423 17.8805 29.7704 17.9227C29.7955 17.9687 29.8069 18.0211 29.8031 18.0734C29.7994 18.1258 29.7807 18.1759 29.7493 18.218C29.7164 18.2658 29.6699 18.3025 29.6157 18.3234C29.563 18.3477 29.5041 18.3551 29.447 18.3445C29.3837 18.3305 29.3204 18.3023 29.2501 18.2531C29.1446 18.1828 29.0813 18.1055 29.0603 18.0211C29.0373 17.9254 29.0525 17.8246 29.1024 17.7398L29.1095 17.7469ZM28.2938 17.2125L28.4696 17.3039C28.4479 17.3525 28.4429 17.4069 28.4556 17.4586C28.4735 17.5069 28.5086 17.5469 28.554 17.5711C28.6103 17.6062 28.6524 17.6203 28.6946 17.6133C28.7368 17.6133 28.7649 17.5922 28.786 17.557C28.7967 17.5403 28.8016 17.5206 28.8001 17.5008C28.8001 17.4797 28.786 17.4516 28.7649 17.4305C28.7289 17.387 28.6914 17.3448 28.6524 17.3039C28.5751 17.2266 28.5259 17.1633 28.5118 17.107C28.5003 17.0708 28.4969 17.0326 28.5017 16.9949C28.5066 16.9573 28.5196 16.9211 28.5399 16.8891C28.5667 16.8457 28.6059 16.8114 28.6524 16.7906C28.7008 16.7684 28.7546 16.761 28.8071 16.7695C28.8722 16.7805 28.9343 16.8044 28.9899 16.8398C29.0954 16.9102 29.1587 16.9805 29.1798 17.0578C29.1926 17.0973 29.1967 17.1392 29.1919 17.1804C29.187 17.2217 29.1733 17.2614 29.1517 17.2969L28.9759 17.1984C28.997 17.1492 29.004 17.1141 28.9899 17.0789C28.9759 17.0437 28.9478 17.0086 28.8985 16.9805C28.8596 16.9525 28.8128 16.9378 28.7649 16.9383C28.7534 16.9391 28.7422 16.9427 28.7324 16.9488C28.7226 16.9549 28.7144 16.9634 28.7087 16.9734C28.6946 16.9945 28.6946 17.0156 28.7017 17.0437C28.7087 17.0719 28.7509 17.1281 28.8212 17.1984C28.8915 17.2688 28.9407 17.325 28.9618 17.3672C28.99 17.4113 29.005 17.4625 29.005 17.5148C29.005 17.5672 28.99 17.6184 28.9618 17.6625C28.9315 17.7116 28.8875 17.7507 28.8353 17.775C28.7825 17.7993 28.7236 17.8066 28.6665 17.7961C28.5941 17.7839 28.5249 17.7576 28.4626 17.7188C28.3717 17.6703 28.3017 17.5903 28.2657 17.4938C28.2386 17.3999 28.2486 17.2991 28.2938 17.2125ZM27.2954 16.9453L27.8087 16.1016L28.4274 16.4883L28.3431 16.6289L27.8931 16.3477L27.7806 16.5375L28.2024 16.7977L28.111 16.9383L27.6892 16.6781L27.5485 16.9102L28.0196 17.1914L27.9353 17.332L27.3024 16.9453H27.2954ZM25.8399 15.75L25.9173 15.6094L26.297 15.7992L26.1212 16.1508C26.0649 16.1648 25.9946 16.1719 25.9103 16.1648C25.8292 16.1559 25.7506 16.1321 25.6782 16.0945C25.5931 16.0531 25.5204 15.99 25.4673 15.9117C25.4189 15.8389 25.3944 15.753 25.397 15.6656C25.4005 15.5747 25.4246 15.4858 25.4673 15.4055C25.5095 15.3209 25.5724 15.2484 25.6501 15.1945C25.7244 15.1431 25.8129 15.1161 25.9032 15.1172C25.9735 15.1172 26.0438 15.1383 26.1282 15.1875C26.2407 15.2367 26.311 15.307 26.3462 15.3844C26.3828 15.4612 26.3902 15.5486 26.3673 15.6305L26.1774 15.5742C26.1891 15.5271 26.1841 15.4775 26.1634 15.4336C26.1423 15.3914 26.1071 15.3633 26.0509 15.3352C26.0181 15.3164 25.9817 15.3049 25.9442 15.3013C25.9066 15.2976 25.8687 15.302 25.8329 15.3141C25.7626 15.3352 25.6993 15.3984 25.6501 15.4969C25.6009 15.5953 25.5798 15.6867 25.6009 15.7641C25.6106 15.8007 25.6282 15.8349 25.6525 15.864C25.6768 15.8932 25.7072 15.9166 25.7415 15.9328C25.7767 15.9539 25.8188 15.968 25.861 15.968C25.903 15.9743 25.9456 15.9743 25.9876 15.968L26.0438 15.8555L25.8399 15.75ZM19.4978 14.182L19.6384 13.1977L19.9337 13.2469L20.011 13.9359L20.2853 13.3031L20.5806 13.3453L20.4399 14.3156L20.2501 14.2875L20.3696 13.5211L20.0603 14.2594L19.8704 14.2312L19.7931 13.4367L19.6806 14.2102L19.4978 14.182ZM18.5063 14.0625L18.5978 13.0781L19.322 13.1484L19.3079 13.3172L18.7806 13.268L18.7595 13.4789L19.2517 13.5281L19.2306 13.6969L18.7384 13.6477L18.7173 13.9148L19.2657 13.9641L19.2517 14.1328L18.5063 14.0625Z" fill="#309E3A"/>
<path d="M15.2229 13.4508C15.2229 13.3453 15.244 13.268 15.2721 13.1976C15.2967 13.1476 15.3301 13.1024 15.3705 13.0641C15.4066 13.0277 15.4496 12.999 15.4971 12.9797C15.5674 12.9586 15.6377 12.9445 15.708 12.9445C15.8557 12.9445 15.9682 13.0008 16.0596 13.0851C16.1031 13.1389 16.1355 13.2008 16.1548 13.2672C16.1741 13.3336 16.18 13.4032 16.1721 13.4719C16.1721 13.6266 16.1229 13.7531 16.0315 13.8445C15.9845 13.8879 15.9289 13.921 15.8684 13.9416C15.8078 13.9622 15.7436 13.9698 15.6799 13.9641C15.617 13.9647 15.5547 13.9525 15.4967 13.9284C15.4387 13.9042 15.3862 13.8685 15.3424 13.8234C15.2549 13.7199 15.2119 13.5859 15.2229 13.4508Z" fill="#309E3A"/>
<path d="M15.4268 13.4508C15.4268 13.5562 15.4479 13.6406 15.4971 13.7039C15.5463 13.7601 15.6096 13.7953 15.6939 13.7953C15.7304 13.7978 15.7671 13.7922 15.8011 13.7788C15.8352 13.7655 15.8658 13.7447 15.8908 13.7179C15.94 13.6617 15.9611 13.5773 15.9682 13.4578C15.9682 13.3453 15.9541 13.2609 15.8979 13.2047C15.8749 13.1763 15.846 13.1534 15.8132 13.1376C15.7804 13.1218 15.7444 13.1135 15.708 13.1133C15.671 13.1121 15.6342 13.119 15.6002 13.1336C15.5662 13.1482 15.5358 13.17 15.5111 13.1976C15.4549 13.2539 15.4338 13.3383 15.4268 13.4508Z" fill="#F7FFFF"/>
<path d="M16.3828 13.957L16.3969 12.9727H16.8187C16.9242 12.9727 16.9945 12.9867 17.0437 13.0078C17.093 13.0219 17.1281 13.057 17.1562 13.0992C17.1844 13.1414 17.1984 13.1977 17.1984 13.2609C17.199 13.3286 17.1739 13.3939 17.1281 13.4437C17.0761 13.4924 17.0093 13.5222 16.9383 13.5281L17.0437 13.6125C17.0719 13.6406 17.107 13.6969 17.1492 13.7742L17.2688 13.9711H17.0297L16.8891 13.7461L16.7906 13.6055C16.7736 13.5861 16.7518 13.5716 16.7273 13.5633C16.6954 13.554 16.6622 13.5492 16.6289 13.5492H16.5867V13.957H16.3828Z" fill="#309E3A"/>
<path d="M16.5938 13.3945H16.7344C16.8328 13.3945 16.8961 13.3945 16.9172 13.3805C16.9383 13.3805 16.9594 13.3594 16.9734 13.3453C16.9875 13.3313 16.9945 13.2961 16.9945 13.275C16.9945 13.2328 16.9875 13.2047 16.9664 13.1906C16.9523 13.1695 16.9242 13.1555 16.8961 13.1485H16.7555L16.5938 13.1414V13.3875V13.3945Z" fill="white"/>
<path d="M17.5077 13.0219L17.8733 13.043C17.9507 13.043 18.014 13.05 18.0562 13.0641C18.1109 13.0839 18.1594 13.1179 18.1968 13.1625C18.2373 13.2117 18.2661 13.2694 18.2812 13.3313C18.3022 13.3945 18.3093 13.4719 18.3022 13.5633C18.3022 13.6351 18.2903 13.7063 18.2671 13.7742C18.239 13.8445 18.1968 13.9008 18.1476 13.943C18.1066 13.9767 18.0585 14.0008 18.0069 14.0133C17.9647 14.0274 17.9015 14.0274 17.8312 14.0274L17.4585 14.0063L17.5077 13.0219Z" fill="#309E3A"/>
<path d="M17.6978 13.1977L17.6626 13.8516H17.9298C17.9649 13.8516 17.9931 13.8375 18.0142 13.8164C18.0353 13.7953 18.0563 13.7672 18.0704 13.725C18.0845 13.6828 18.0985 13.6195 18.0985 13.5422L18.0915 13.3664C18.0815 13.3293 18.0621 13.2954 18.0353 13.268C18.0119 13.2445 17.9828 13.2275 17.9509 13.2188C17.8977 13.2069 17.8436 13.1999 17.7892 13.1977H17.6978Z" fill="white"/>
<path d="M22.3311 14.7797L22.5631 13.8234L22.8725 13.8937L23.0975 13.9641C23.1467 13.9922 23.1889 14.0344 23.21 14.0976C23.2381 14.1539 23.2381 14.2172 23.224 14.2945C23.21 14.3508 23.1889 14.4 23.1537 14.4351C23.1279 14.466 23.0957 14.4908 23.0592 14.5079C23.0228 14.5249 22.983 14.5336 22.9428 14.5336C22.8936 14.5336 22.8232 14.5195 22.7318 14.4984L22.6123 14.4633L22.5279 14.8289L22.3311 14.7797Z" fill="#309E3A"/>
<path d="M22.7105 14.0344L22.6543 14.3015L22.7598 14.3297C22.8301 14.3437 22.8863 14.3578 22.9145 14.3508C22.9418 14.347 22.9673 14.3348 22.9875 14.3159C23.0076 14.297 23.0214 14.2724 23.027 14.2453C23.027 14.2101 23.027 14.182 23.0129 14.1539C22.9975 14.1253 22.9726 14.103 22.9426 14.0906L22.809 14.0555L22.7176 14.0344H22.7105Z" fill="white"/>
<path d="M23.2451 15.0539L23.5756 14.1258L23.9623 14.2664C24.0678 14.3016 24.1311 14.3367 24.1732 14.3649C24.2084 14.4 24.2365 14.4352 24.2436 14.4914C24.2506 14.5477 24.2576 14.5969 24.2436 14.6531C24.2154 14.7234 24.1732 14.7727 24.117 14.8078C24.0607 14.836 23.9904 14.843 23.9061 14.8289C23.9342 14.8641 23.9623 14.8992 23.9764 14.9414L24.0326 15.1313L24.0748 15.3492L23.8568 15.2719L23.7865 15.0188C23.7737 14.9615 23.7573 14.9052 23.7373 14.85C23.728 14.8281 23.7135 14.8088 23.6951 14.7938C23.6811 14.7727 23.6529 14.7586 23.6037 14.7445L23.5686 14.7305L23.4279 15.1242L23.2451 15.0539Z" fill="#309E3A"/>
<path d="M23.6247 14.5828L23.7583 14.632C23.8497 14.6672 23.906 14.6813 23.9341 14.6813C23.9552 14.6813 23.9763 14.6813 23.9974 14.6602C24.0185 14.6461 24.0325 14.625 24.0396 14.5969C24.0536 14.5688 24.0536 14.5406 24.0396 14.5125C24.0291 14.4853 24.0091 14.4628 23.9833 14.4492L23.8427 14.4L23.7021 14.3508L23.6177 14.5828H23.6247Z" fill="white"/>
<path d="M24.3983 15.0188C24.4225 14.9364 24.4631 14.8599 24.5178 14.7938C24.5534 14.7513 24.5963 14.7156 24.6444 14.6883C24.688 14.6637 24.7356 14.647 24.785 14.6391C24.8553 14.6391 24.9256 14.6391 25.003 14.6672C25.0658 14.6827 25.1247 14.7115 25.1756 14.7515C25.2265 14.7915 25.2683 14.8418 25.2983 14.8992C25.3546 15.0117 25.3546 15.1453 25.3124 15.3C25.2776 15.4329 25.1916 15.5466 25.0733 15.6164C24.9678 15.6797 24.8413 15.6867 24.7077 15.6445C24.645 15.6286 24.5864 15.5997 24.5355 15.5597C24.4846 15.5198 24.4427 15.4696 24.4124 15.4125C24.3842 15.351 24.3685 15.2846 24.366 15.217C24.3636 15.1495 24.3746 15.0821 24.3983 15.0188Z" fill="#309E3A"/>
<path d="M24.5951 15.075C24.567 15.1805 24.5599 15.2719 24.5951 15.3422C24.6302 15.4125 24.6795 15.4547 24.7568 15.4828C24.8271 15.5039 24.8974 15.4969 24.9677 15.4547C25.0381 15.4195 25.0803 15.3422 25.1154 15.2297C25.1506 15.1242 25.1506 15.0399 25.1154 14.9695C25.1015 14.9362 25.0805 14.9063 25.0537 14.882C25.027 14.8577 24.9952 14.8396 24.9607 14.8289C24.9261 14.817 24.8894 14.8127 24.8529 14.8163C24.8165 14.82 24.7813 14.8315 24.7498 14.85C24.6795 14.8922 24.6302 14.9625 24.5951 15.075Z" fill="white"/>
<path d="M26.3179 16.3899L26.7679 15.518L27.1405 15.7078C27.2108 15.7415 27.2749 15.7867 27.3304 15.8414C27.3655 15.8766 27.3866 15.9188 27.3866 15.975C27.3866 16.0313 27.3866 16.0805 27.3585 16.1297C27.3315 16.1929 27.2811 16.2433 27.2179 16.2703C27.1476 16.2844 27.0772 16.2844 26.9999 16.2563C27.028 16.2984 27.0421 16.3406 27.0562 16.3758C27.0702 16.418 27.0772 16.4813 27.0843 16.5727L27.0983 16.7977L26.8874 16.6922L26.8593 16.432C26.8559 16.3731 26.8489 16.3143 26.8382 16.2563C26.8334 16.23 26.8212 16.2056 26.803 16.1859L26.7187 16.1367L26.6835 16.1156L26.4937 16.4813L26.3179 16.3899Z" fill="#309E3A"/>
<path d="M26.7539 15.975L26.8875 16.0453C26.9719 16.0875 27.0281 16.1156 27.0492 16.1156C27.0703 16.1156 27.0984 16.1156 27.1195 16.1016C27.1406 16.0945 27.1547 16.0734 27.1687 16.0453C27.1828 16.0172 27.1898 15.9891 27.1828 15.9609C27.1741 15.9329 27.1569 15.9084 27.1336 15.8906C27.0924 15.8654 27.0502 15.8419 27.007 15.8203L26.8664 15.75L26.7539 15.975Z" fill="white"/>
<path d="M29.9604 18.1899C30.0059 18.1176 30.0657 18.0553 30.1362 18.007C30.1835 17.9768 30.2359 17.9553 30.2908 17.9438C30.3419 17.9333 30.3945 17.9333 30.4455 17.9438C30.5158 17.9578 30.5791 17.9859 30.6424 18.0281C30.6971 18.0622 30.7441 18.1073 30.7805 18.1606C30.8168 18.2139 30.8416 18.2741 30.8533 18.3375C30.8744 18.457 30.8393 18.5906 30.7549 18.7242C30.6843 18.8404 30.5705 18.9239 30.4385 18.9563C30.3755 18.9699 30.3104 18.97 30.2474 18.9567C30.1844 18.9433 30.1249 18.9168 30.0729 18.8789C30.0182 18.8448 29.9711 18.7997 29.9348 18.7464C29.8985 18.6932 29.8737 18.6329 29.8619 18.5695C29.8408 18.443 29.876 18.3164 29.9604 18.1899Z" fill="#309E3A"/>
<path d="M30.1361 18.3023C30.0658 18.3937 30.0447 18.4781 30.0588 18.5555C30.064 18.5911 30.0767 18.6252 30.0961 18.6555C30.1155 18.6858 30.1411 18.7116 30.1713 18.7312C30.2416 18.7805 30.3119 18.7945 30.3822 18.7734C30.4526 18.7523 30.5229 18.7031 30.5861 18.6047C30.6494 18.5062 30.6776 18.4219 30.6635 18.3516C30.6565 18.2812 30.6143 18.218 30.551 18.1687C30.4877 18.1195 30.4104 18.1125 30.34 18.1336C30.2697 18.1476 30.1994 18.2039 30.1291 18.3023H30.1361Z" fill="white"/>
<path d="M21.2202 14.3789L21.3819 13.6898L21.8882 13.8094L21.8671 13.9219L21.4944 13.8375L21.4593 13.9922L21.8038 14.0695L21.7757 14.1891L21.4312 14.1047L21.389 14.2945L21.7757 14.3859L21.7476 14.4984L21.2202 14.3789Z" fill="#309E3A"/>
</g>
<defs>
<clipPath id="clip0_171_824">
<rect width="45" height="33.75" fill="white"/>
</clipPath>
</defs>
</svg>
