<svg width="45" height="34" viewBox="0 0 45 34" fill="none" xmlns="http://www.w3.org/2000/svg">
<g clip-path="url(#clip0_171_1540)">
<path d="M10.5562 0H34.4382V33.75H10.5562L10.5562 0Z" fill="white"/>
<path d="M-1.38184 0H10.5559V33.75H-1.38184V0ZM34.438 0H46.3757V33.75H34.4446L34.438 0ZM14.1353 16.3081L13.1992 16.6245L17.5168 20.4148C17.8465 21.3838 17.4048 21.6672 17.1213 22.1814L21.8015 21.5881L21.6895 26.3012L22.665 26.2749L22.4475 21.5947L27.1409 22.155C26.8508 21.542 26.5938 21.219 26.8574 20.2434L31.1685 16.6508L30.417 16.374C29.7973 15.8994 30.6807 14.0867 30.8125 12.9397C30.8125 12.9397 28.301 13.8032 28.1362 13.3484L27.4902 12.1158L25.2029 14.6338C24.9524 14.6931 24.8469 14.5942 24.7876 14.3833L25.8423 9.12305L24.168 10.0657C24.0295 10.1316 23.8911 10.0789 23.7988 9.91406L22.1838 6.68405L20.5227 10.0394C20.3975 10.158 20.2722 10.1711 20.1668 10.0921L18.5715 9.19561L19.534 14.4096C19.4549 14.6206 19.2703 14.6733 19.0593 14.5613L16.8643 12.0762C16.5808 12.5376 16.3896 13.2825 16.0074 13.4539C15.6316 13.6121 14.3594 13.1375 13.509 12.9529C13.7991 14.001 14.7088 15.7412 14.1353 16.3147V16.3081Z" fill="#D52B1E"/>
</g>
<defs>
<clipPath id="clip0_171_1540">
<rect width="45" height="33.75" fill="white"/>
</clipPath>
</defs>
</svg>
