<svg width="45" height="34" viewBox="0 0 45 34" fill="none" xmlns="http://www.w3.org/2000/svg">
<g clip-path="url(#clip0_171_817)">
<path d="M0 0H45V33.75H0V0Z" fill="#DE2910"/>
<path d="M5.39997 12.4875L8.43744 3.375L11.4749 12.4875L3.375 6.91875H13.4999L5.39997 12.4875Z" fill="#FFDE00"/>
<path d="M18.5745 3.54962L15.4486 4.24235L17.5337 1.81259L17.3292 5.08273L15.5945 2.18767L18.5745 3.54962Z" fill="#FFDE00"/>
<path d="M21.7292 7.54786L18.5793 6.974L21.4436 5.54311L19.9868 8.47798L19.5107 5.13673L21.7292 7.54786Z" fill="#FFDE00"/>
<path d="M21.2696 13.1572L18.6276 11.3485L21.8264 11.2102L19.2993 13.2958L20.2273 10.0508L21.2696 13.1572Z" fill="#FFDE00"/>
<path d="M17.296 16.8216L15.5576 14.1329L18.5615 15.2408L15.4251 16.1884L17.5343 13.5538L17.296 16.8216Z" fill="#FFDE00"/>
</g>
<defs>
<clipPath id="clip0_171_817">
<rect width="45" height="33.75" fill="white"/>
</clipPath>
</defs>
</svg>
