<svg width="53" height="42" viewBox="0 0 53 42" fill="none" xmlns="http://www.w3.org/2000/svg">
<g clip-path="url(#clip0_171_1556)" filter="url(#filter0_d_171_1556)">
<path fill-rule="evenodd" clip-rule="evenodd" d="M3.99902 0.00176239H49.0078V33.7518H3.99902V0.00176239Z" fill="white"/>
<path fill-rule="evenodd" clip-rule="evenodd" d="M8.93213 10.2516L13.6136 3.23198L14.7836 4.01223L10.1021 11.0318L8.93213 10.2516ZM10.687 11.422L15.3685 4.40235L16.5385 5.1826L11.857 12.2022L10.687 11.422ZM12.4419 12.5923L17.1234 5.57273L18.2934 6.35298L13.6119 13.3726L12.4419 12.5923Z" fill="black"/>
<path fill-rule="evenodd" clip-rule="evenodd" d="M8.93213 10.2516L13.6136 3.23198L14.7836 4.01223L10.1021 11.0318L8.93213 10.2516ZM10.687 11.422L15.3685 4.40235L16.5385 5.1826L11.857 12.2022L10.687 11.422ZM12.4419 12.5923L17.1234 5.57273L18.2934 6.35298L13.6119 13.3726L12.4419 12.5923Z" fill="black"/>
<path fill-rule="evenodd" clip-rule="evenodd" d="M36.4263 23.5172L42.2759 27.4184L36.4263 23.5172Z" fill="black"/>
<path d="M36.4263 23.5172L42.2759 27.4184" stroke="white" stroke-width="1.25"/>
<path fill-rule="evenodd" clip-rule="evenodd" d="M19.4624 12.2035C20.704 10.3418 22.6343 9.04959 24.8287 8.61111C27.0231 8.17263 29.3018 8.62382 31.1635 9.86543C33.0252 11.107 34.3175 13.0374 34.756 15.2318C35.1944 17.4261 34.7432 19.7048 33.5016 21.5665L19.4624 12.2035Z" fill="#CD2E3A"/>
<path fill-rule="evenodd" clip-rule="evenodd" d="M19.4623 12.2035C18.2207 14.0653 17.7695 16.344 18.2079 18.5383C18.6464 20.7327 19.9387 22.663 21.8004 23.9047C23.6621 25.1463 25.9408 25.5975 28.1352 25.159C30.3296 24.7205 32.2599 23.4283 33.5015 21.5665C34.1223 20.6357 34.3479 19.4963 34.1287 18.3991C33.9094 17.302 33.2633 16.3368 32.3324 15.716C31.4016 15.0952 30.2622 14.8696 29.165 15.0888C28.0678 15.3081 27.1027 15.9542 26.4819 16.885L19.4623 12.2035Z" fill="#0047A0"/>
<path d="M26.4819 16.885C27.7747 14.9466 27.2513 12.3272 25.3129 11.0345C23.3745 9.74172 20.7551 10.2651 19.4623 12.2035C18.1696 14.142 18.693 16.7613 20.6314 18.0541C22.5698 19.3469 25.1892 18.8235 26.4819 16.885Z" fill="#CD2E3A"/>
<path fill-rule="evenodd" clip-rule="evenodd" d="M45.02 22.743L40.8013 30.0501L39.5834 29.3469L43.8022 22.0399L45.02 22.743ZM43.1932 21.6883L38.9745 28.9954L37.7566 28.2923L41.9754 20.9852L43.1932 21.6883ZM41.3665 20.6336L37.1477 27.9407L35.9299 27.2376L40.1486 19.9305L41.3665 20.6336Z" fill="black"/>
<path fill-rule="evenodd" clip-rule="evenodd" d="M45.02 22.743L40.8013 30.0501L39.5834 29.3469L43.8022 22.0399L45.02 22.743ZM43.1932 21.6883L38.9745 28.9954L37.7566 28.2923L41.9754 20.9852L43.1932 21.6883ZM41.3665 20.6336L37.1477 27.9407L35.9299 27.2376L40.1486 19.9305L41.3665 20.6336Z" fill="black"/>
<path fill-rule="evenodd" clip-rule="evenodd" d="M16.7271 11.2793L10.6378 7.76371L16.7271 11.2793Z" fill="black"/>
<path d="M16.7271 11.2793L10.6378 7.76371" stroke="white" stroke-width="1.25"/>
<path fill-rule="evenodd" clip-rule="evenodd" d="M13.6304 30.5429L8.94909 23.5231L10.119 22.7428L14.8003 29.7626L13.6304 30.5429ZM15.3852 29.3724L10.704 22.3527L11.8739 21.5724L16.5551 28.5922L15.3852 29.3724ZM17.1401 28.202L12.4588 21.1823L13.6287 20.402L18.31 27.4217L17.1401 28.202Z" fill="black"/>
<path fill-rule="evenodd" clip-rule="evenodd" d="M13.6304 30.5429L8.94909 23.5231L10.119 22.7428L14.8003 29.7626L13.6304 30.5429ZM15.3852 29.3724L10.704 22.3527L11.8739 21.5724L16.5551 28.5922L15.3852 29.3724ZM17.1401 28.202L12.4588 21.1823L13.6287 20.402L18.31 27.4217L17.1401 28.202Z" fill="black"/>
<path fill-rule="evenodd" clip-rule="evenodd" d="M12.752 26.0578L14.5069 24.8874L12.752 26.0578ZM36.4432 10.2577L38.4905 8.89225L36.4432 10.2577ZM40.2454 7.72187L42.0003 6.5515L40.2454 7.72187Z" fill="black"/>
<path d="M12.752 26.0578L14.5069 24.8874M36.4432 10.2577L38.4905 8.89225M40.2454 7.72187L42.0004 6.5515" stroke="white" stroke-width="1.25"/>
<path fill-rule="evenodd" clip-rule="evenodd" d="M40.5195 3.91022L44.7376 11.2177L43.5198 11.9209L39.3017 4.61346L40.5195 3.91022ZM38.6929 4.96508L42.9109 12.2726L41.6932 12.9758L37.4751 5.66832L38.6929 4.96508ZM36.8662 6.01993L41.0843 13.3274L39.8665 14.0306L35.6484 6.72317L36.8662 6.01993Z" fill="black"/>
<path fill-rule="evenodd" clip-rule="evenodd" d="M40.5195 3.91022L44.7376 11.2177L43.5198 11.9209L39.3017 4.61346L40.5195 3.91022ZM38.6929 4.96508L42.9109 12.2726L41.6932 12.9758L37.4751 5.66832L38.6929 4.96508ZM36.8662 6.01993L41.0843 13.3274L39.8665 14.0306L35.6484 6.72317L36.8662 6.01993Z" fill="black"/>
<path fill-rule="evenodd" clip-rule="evenodd" d="M41.1064 8.44268L39.2797 9.49737L41.1064 8.44268ZM16.445 22.681L14.3138 23.9114L16.445 22.681ZM12.487 24.9661L10.6602 26.0208L12.487 24.9661Z" fill="black"/>
<path d="M41.1064 8.44268L39.2797 9.49737M16.445 22.681L14.3138 23.9114M12.487 24.9661L10.6602 26.0208" stroke="white" stroke-width="1.25"/>
</g>
<defs>
<filter id="filter0_d_171_1556" x="0" y="0" width="53" height="41.75" filterUnits="userSpaceOnUse" color-interpolation-filters="sRGB">
<feFlood flood-opacity="0" result="BackgroundImageFix"/>
<feColorMatrix in="SourceAlpha" type="matrix" values="0 0 0 0 0 0 0 0 0 0 0 0 0 0 0 0 0 0 127 0" result="hardAlpha"/>
<feOffset dy="4"/>
<feGaussianBlur stdDeviation="2"/>
<feComposite in2="hardAlpha" operator="out"/>
<feColorMatrix type="matrix" values="0 0 0 0 0 0 0 0 0 0 0 0 0 0 0 0 0 0 0.25 0"/>
<feBlend mode="normal" in2="BackgroundImageFix" result="effect1_dropShadow_171_1556"/>
<feBlend mode="normal" in="SourceGraphic" in2="effect1_dropShadow_171_1556" result="shape"/>
</filter>
<clipPath id="clip0_171_1556">
<rect width="45" height="33.75" fill="white" transform="translate(4)"/>
</clipPath>
</defs>
</svg>
