<svg width="53" height="42" viewBox="0 0 53 42" fill="none" xmlns="http://www.w3.org/2000/svg">
<g clip-path="url(#clip0_171_1582)" filter="url(#filter0_d_171_1582)">
<path fill-rule="evenodd" clip-rule="evenodd" d="M4 0H68.125V2.5972H4V0ZM4 5.19434H68.125V7.79154H4V5.19434ZM4 10.3821H68.125V12.9858H4V10.3821ZM4 15.5764H68.125V18.1736H4V15.5764ZM4 20.7707H68.125V23.3679H4V20.7707ZM4 25.9585H68.125V28.5557H4V25.9585ZM4 31.1528H68.125V33.75H4V31.1528Z" fill="#BD3D44"/>
<path fill-rule="evenodd" clip-rule="evenodd" d="M4 2.5972H68.125V5.19433H4V2.5972ZM4 7.79146H68.125V10.3821H4V7.79146ZM4 12.9793H68.125V15.5764H4V12.9793ZM4 18.1736H68.125V20.7707H4V18.1736ZM4 23.3679H68.125V25.9651H4V23.3679ZM4 28.5557H68.125V31.1529H4V28.5557Z" fill="white"/>
<path fill-rule="evenodd" clip-rule="evenodd" d="M4 0H29.6487V18.1736H4V0Z" fill="#192F5D"/>
<path fill-rule="evenodd" clip-rule="evenodd" d="M6.13571 0.777863L6.37301 1.49625H7.12451L6.518 1.93795L6.74876 2.66301L6.13571 2.21477L5.52926 2.6564L5.75996 1.93795L5.14697 1.49625H5.91162L6.13571 0.777863ZM10.4138 0.777863L10.6445 1.49625H11.4025L10.7895 1.93795L11.0202 2.66301L10.4138 2.21477L9.80075 2.6564L10.0314 1.93795L9.425 1.49625H10.1765L10.4138 0.777863ZM14.6853 0.777863L14.9226 1.49632H15.6675L15.061 1.93802L15.2917 2.66308L14.6787 2.21484L14.0722 2.65647L14.3029 1.93802L13.6899 1.49632H14.448L14.6853 0.777863ZM18.9634 0.777863L19.194 1.49632H19.9521L19.3391 1.93802L19.5764 2.66308L18.9633 2.21484L18.3503 2.65647L18.5876 1.93802L17.9746 1.49632H18.7261L18.9634 0.777863ZM23.2349 0.777863L23.4722 1.49632H24.2236L23.6172 1.93802L23.8478 2.66308L23.2348 2.21484L22.6283 2.65647L22.8591 1.93802L22.2527 1.49632H23.0041L23.2349 0.777863ZM27.5129 0.777863L27.7436 1.49632H28.5017L27.8886 1.93802L28.1259 2.66308L27.5129 2.21484L26.8998 2.65647L27.1371 1.93802L26.5242 1.49632H27.2822L27.5129 0.777863ZM8.27806 2.59706L8.50875 3.31565H9.26679L8.65374 3.75721L8.87789 4.47581L8.2846 4.0341L7.67161 4.47574L7.88909 3.75728L7.29586 3.31558H8.04736L8.27806 2.59706ZM12.5495 2.59706L12.7868 3.31565H13.5383L12.9252 3.75721L13.1626 4.47581L12.5495 4.0341L11.9365 4.47574L12.1738 3.75728L11.5607 3.31558H12.3188L12.5495 2.59706ZM16.8276 2.59706L17.0583 3.31565H17.8164L17.2033 3.75721L17.434 4.47581L16.8276 4.0341L16.2146 4.47574L16.4453 3.75735L15.8388 3.31565H16.5903L16.8276 2.59706ZM21.0991 2.59706L21.3364 3.31565H22.0879L21.4748 3.75721L21.7121 4.47581L21.0991 4.0341L20.4926 4.47574L20.7234 3.75728L20.1103 3.31558H20.875L21.0991 2.59706ZM25.3771 2.59706L25.6078 3.31565H26.3659L25.7529 3.75721L25.9836 4.47581L25.3771 4.0341L24.7641 4.47574L24.9949 3.75728L24.3884 3.31558H25.1398L25.3771 2.59706ZM6.13571 4.41L6.37301 5.14167H7.12451L6.518 5.5833L6.74876 6.30182L6.13571 5.85358L5.52926 6.30182L5.75996 5.57669L5.14697 5.13513H5.91162L6.13571 4.41ZM10.4138 4.41L10.6445 5.13492H11.4025L10.7895 5.57655L11.0202 6.29514L10.4138 5.84683L9.80075 6.29507L10.0314 5.57001L9.425 5.12838H10.1765L10.4138 4.41ZM14.6853 4.41L14.9226 5.13506H15.6675L15.061 5.57669L15.2917 6.29528L14.6787 5.84697L14.0722 6.29521L14.3029 5.57015L13.6899 5.12852H14.448L14.6853 4.41ZM18.9634 4.41L19.194 5.13506H19.9521L19.3391 5.57669L19.5764 6.29528L18.9633 5.84697L18.3503 6.29521L18.5876 5.57015L17.9746 5.12852H18.7261L18.9634 4.41ZM23.2349 4.41L23.4722 5.13506H24.2236L23.6172 5.57662L23.8478 6.29521L23.2348 5.8469L22.6283 6.29514L22.8591 5.57008L22.2527 5.12845H23.0041L23.2349 4.41ZM27.5129 4.41L27.7436 5.13506H28.5017L27.8886 5.57669L28.1259 6.29528L27.5129 5.84697L26.8998 6.29521L27.1371 5.57015L26.5242 5.12852H27.2822L27.5129 4.41ZM8.27806 6.22926L8.50875 6.94778H9.26679L8.65374 7.38935L8.8845 8.11448L8.27806 7.66624L7.665 8.10787L7.8957 7.38942L7.28925 6.94778H8.04082L8.27806 6.22926ZM12.5495 6.22926L12.7868 6.94778H13.5383L12.9252 7.38935L13.1626 8.11448L12.5495 7.66624L11.9365 8.10787L12.1738 7.38942L11.5607 6.94778H12.3188L12.5495 6.22926ZM16.8276 6.22926L17.0583 6.94778H17.8164L17.2033 7.38935L17.434 8.11448L16.8276 7.66624L16.2146 8.10787L16.4453 7.38942L15.8388 6.94778H16.5903L16.8276 6.22926ZM21.0991 6.22926L21.3364 6.94778H22.0879L21.4814 7.38935L21.7121 8.11448L21.0991 7.66624L20.4926 8.10787L20.7234 7.38942L20.1103 6.94778H20.875L21.0991 6.22926ZM25.3771 6.22926L25.6078 6.94778H26.3659L25.7529 7.38935L25.9836 8.11448L25.3771 7.66624L24.7641 8.10787L24.9949 7.38942L24.3884 6.94778H25.1398L25.3771 6.22926ZM6.13571 8.0486L6.37301 8.76712H7.12451L6.518 9.20868L6.74876 9.93382L6.13571 9.48557L5.52926 9.92721L5.75996 9.20875L5.14697 8.76712H5.91162L6.13571 8.0486ZM10.4138 8.0486L10.6445 8.76712H11.4025L10.7895 9.20868L11.0202 9.92728L10.4138 9.48557L9.80075 9.92721L10.0314 9.20875L9.425 8.76712H10.1765L10.4138 8.0486ZM14.6853 8.0486L14.9226 8.76712H15.6675L15.061 9.20868L15.2917 9.93382L14.6787 9.48557L14.0722 9.92721L14.3029 9.20875L13.6899 8.76712H14.448L14.6853 8.0486ZM18.9634 8.0486L19.194 8.76712H19.9521L19.3391 9.20868L19.5764 9.93382L18.9633 9.48557L18.3503 9.92721L18.5876 9.20875L17.9746 8.76712H18.7261L18.9634 8.0486ZM23.2349 8.0486L23.4722 8.76712H24.2236L23.6172 9.20868L23.8478 9.93382L23.2348 9.48557L22.6283 9.92721L22.8591 9.20875L22.2527 8.76712H23.0041L23.2349 8.0486ZM27.5129 8.0486L27.7436 8.76712H28.5017L27.8886 9.20868L28.1259 9.93382L27.5129 9.48557L26.8998 9.92721L27.1371 9.20875L26.5242 8.76712H27.2822L27.5129 8.0486ZM8.27806 9.86793L8.50875 10.5865H9.26679L8.65374 11.028L8.8845 11.7466L8.27806 11.2984L7.665 11.7466L7.8957 11.0215L7.28925 10.5798H8.04082L8.27806 9.86793ZM12.5495 9.86793L12.7868 10.5865H13.5383L12.9252 11.028L13.1626 11.7466L12.5495 11.2984L11.9365 11.7466L12.1738 11.0215L11.5607 10.5798H12.3188L12.5495 9.86793ZM16.8276 9.86793L17.0583 10.5865H17.8164L17.2033 11.028L17.434 11.7466L16.8276 11.2984L16.2146 11.7466L16.4453 11.0215L15.8388 10.5798H16.5903L16.8276 9.86793ZM21.0991 9.86793L21.3364 10.5865H22.0879L21.4814 11.028L21.7121 11.7466L21.0991 11.2984L20.4926 11.7466L20.7234 11.0215L20.1103 10.5798H20.875L21.0991 9.86793ZM25.3771 9.86793L25.6078 10.5865H26.3659L25.7529 11.028L25.9836 11.7466L25.3771 11.2984L24.7641 11.7466L24.9949 11.0215L24.3884 10.5798H25.1398L25.3771 9.86793ZM6.13571 11.6807L6.37301 12.4058H7.12451L6.518 12.8474L6.74876 13.5593L6.13571 13.1177L5.52926 13.5593L5.75996 12.8408L5.14697 12.3992H5.91162L6.13571 11.6807ZM10.4138 11.6807L10.6445 12.4058H11.4025L10.7895 12.8474L11.0269 13.5593L10.4137 13.1177L9.80075 13.5593L10.0381 12.8408L9.425 12.3992H10.1765L10.4138 11.6807ZM14.6853 11.6807L14.9226 12.4058H15.6675L15.061 12.8474L15.2917 13.5593L14.6787 13.1177L14.0722 13.5593L14.3029 12.8408L13.6899 12.3992H14.448L14.6853 11.6807ZM18.9634 11.6807L19.194 12.4058H19.9521L19.3391 12.8474L19.5764 13.5593L18.9633 13.1177L18.3503 13.5593L18.5876 12.8408L17.9746 12.3992H18.7261L18.9634 11.6807ZM23.2349 11.6807L23.4722 12.4058H24.2236L23.6172 12.8474L23.8478 13.5593L23.2348 13.1177L22.6283 13.5593L22.8591 12.8408L22.2527 12.3992H23.0041L23.2349 11.6807ZM27.5129 11.6807L27.7436 12.4058H28.5017L27.8886 12.8474L28.1259 13.5593L27.5129 13.1177L26.8998 13.5593L27.1371 12.8408L26.5242 12.3992H27.2822L27.5129 11.6807ZM8.27806 13.5L8.50875 14.2185H9.26679L8.65374 14.6602L8.8845 15.3853L8.27806 14.937L7.665 15.3786L7.8957 14.6602L7.28925 14.2185H8.04082L8.27806 13.5ZM12.5495 13.5L12.7868 14.2185H13.5383L12.9252 14.6602L13.1626 15.3853L12.5495 14.937L11.9365 15.3786L12.1738 14.6602L11.5607 14.2185H12.3188L12.5495 13.5ZM16.8276 13.5L17.0583 14.2185H17.8164L17.2033 14.6602L17.434 15.3853L16.8276 14.937L16.2146 15.3786L16.4453 14.6602L15.8388 14.2185H16.5903L16.8276 13.5ZM21.0991 13.5L21.3364 14.2185H22.0879L21.4814 14.6602L21.7121 15.3853L21.0991 14.937L20.4926 15.3786L20.7234 14.6602L20.1103 14.2185H20.875L21.0991 13.5ZM25.3771 13.5L25.6078 14.2185H26.3659L25.7529 14.6602L25.9836 15.3853L25.3771 14.937L24.7641 15.3786L24.9949 14.6602L24.3884 14.2185H25.1398L25.3771 13.5ZM6.13571 15.3193L6.37301 16.0379H7.12451L6.518 16.4795L6.74876 17.198L6.13571 16.7564L5.52926 17.1979L5.75996 16.4729L5.14697 16.0312H5.91162L6.13571 15.3193ZM10.4138 15.3193L10.6445 16.0379H11.4025L10.7895 16.4795L11.0269 17.198L10.4137 16.7564L9.80075 17.1979L10.0381 16.4729L9.425 16.0312H10.1765L10.4138 15.3193ZM14.6853 15.3193L14.9226 16.0379H15.6675L15.0742 16.4795L15.3049 17.198L14.6918 16.7564L14.0854 17.1979L14.3161 16.4729L13.7031 16.0312H14.4611L14.6853 15.3193ZM18.9634 15.3193L19.194 16.0379H19.9521L19.3391 16.4795L19.5764 17.198L18.9633 16.7564L18.3503 17.1979L18.5876 16.4729L17.9746 16.0312H18.7261L18.9634 15.3193ZM23.2349 15.3193L23.4722 16.0379H24.2236L23.6172 16.4795L23.8478 17.198L23.2348 16.7564L22.6283 17.1979L22.8591 16.4729L22.2527 16.0312H23.0041L23.2349 15.3193ZM27.5129 15.3193L27.7436 16.0379H28.5017L27.8886 16.4795L28.1259 17.198L27.5129 16.7564L26.8998 17.1979L27.1371 16.4729L26.5242 16.0312H27.2822L27.5129 15.3193Z" fill="white"/>
</g>
<defs>
<filter id="filter0_d_171_1582" x="0" y="0" width="53" height="41.75" filterUnits="userSpaceOnUse" color-interpolation-filters="sRGB">
<feFlood flood-opacity="0" result="BackgroundImageFix"/>
<feColorMatrix in="SourceAlpha" type="matrix" values="0 0 0 0 0 0 0 0 0 0 0 0 0 0 0 0 0 0 127 0" result="hardAlpha"/>
<feOffset dy="4"/>
<feGaussianBlur stdDeviation="2"/>
<feComposite in2="hardAlpha" operator="out"/>
<feColorMatrix type="matrix" values="0 0 0 0 0 0 0 0 0 0 0 0 0 0 0 0 0 0 0.25 0"/>
<feBlend mode="normal" in2="BackgroundImageFix" result="effect1_dropShadow_171_1582"/>
<feBlend mode="normal" in="SourceGraphic" in2="effect1_dropShadow_171_1582" result="shape"/>
</filter>
<clipPath id="clip0_171_1582">
<rect width="45" height="33.75" fill="white" transform="translate(4)"/>
</clipPath>
</defs>
</svg>
