<svg width="49" height="53" viewBox="0 0 49 53" fill="none" xmlns="http://www.w3.org/2000/svg">
<circle cx="46.25" cy="11.25" r="2.25" fill="#99E217"/>
<circle cx="37.25" cy="4.25" r="2.25" fill="#99E217"/>
<circle cx="25.25" cy="2.25" r="2.25" fill="#99E217"/>
<circle cx="14.25" cy="5.25" r="2.25" fill="#99E217"/>
<circle cx="6.25" cy="13.25" r="2.25" fill="#99E217"/>
<circle cx="2.25" cy="24.25" r="2.25" fill="#99E217"/>
<circle cx="4.25" cy="36.25" r="2.25" fill="#99E217"/>
<circle cx="11.25" cy="45.25" r="2.25" fill="#99E217"/>
<circle cx="22.25" cy="50.25" r="2.25" fill="#99E217"/>
<circle cx="34.25" cy="49.25" r="2.25" fill="#99E217"/>
<circle cx="45.25" cy="43.25" r="2.25" fill="#99E217"/>
<circle cx="40.25" cy="38.25" r="1.25" fill="#97C141"/>
<circle cx="32.25" cy="42.25" r="1.25" fill="#97C141"/>
<circle cx="24.25" cy="43.25" r="1.25" fill="#97C141"/>
<circle cx="16.25" cy="40.25" r="1.25" fill="#97C141"/>
<circle cx="11.25" cy="33.25" r="1.25" fill="#97C141"/>
<circle cx="9.25" cy="24.25" r="1.25" fill="#97C141"/>
<circle cx="12.25" cy="17.25" r="1.25" fill="#97C141"/>
<circle cx="18.25" cy="11.25" r="1.25" fill="#97C141"/>
<circle cx="26.25" cy="8.25" r="1.25" fill="#97C141"/>
<circle cx="35.25" cy="10.25" r="1.25" fill="#97C141"/>
<circle cx="41.25" cy="15.25" r="1.25" fill="#97C141"/>
</svg>
